<svg width="66" height="21" viewBox="0 0 66 21" fill="none" xmlns="http://www.w3.org/2000/svg">
<path d="M37.2835 15.9448C36.5151 16.701 35.5133 17.1746 34.4412 17.2884C33.3692 17.4022 32.2902 17.1495 31.3802 16.5715L29.5891 19.4148C31.1409 20.3954 32.9783 20.8235 34.8038 20.6297C36.6292 20.436 38.3358 19.6317 39.6471 18.3471L37.2835 15.9448ZM34.0572 4.36258C32.5779 4.33907 31.12 4.71847 29.8398 5.46012C28.5596 6.20177 27.5053 7.27773 26.7898 8.57274C26.0744 9.86775 25.7247 11.333 25.7782 12.8116C25.8318 14.2901 26.2866 15.7262 27.0939 16.966L41.8637 10.6527C41.4481 8.88499 40.4546 7.30646 39.0406 6.16711C37.6266 5.02776 35.8729 4.39273 34.0572 4.36258V4.36258ZM29.1636 13.0202C29.0519 11.9985 29.2716 10.968 29.7902 10.0806C30.3089 9.19331 31.099 8.49621 32.0441 8.09218C32.9891 7.68815 34.039 7.59861 35.0388 7.83675C36.0386 8.0749 36.9354 8.62812 37.5968 9.4148L29.1636 13.0202ZM46.502 0.691406V16.4322L49.2332 17.5657L47.945 20.6604L45.2371 19.5386C44.6918 19.3052 44.2285 18.9147 43.9063 18.4167C43.5465 17.8371 43.3649 17.1645 43.3841 16.4825V0.691406H46.502ZM22.7187 0.691406V16.4322L25.4266 17.5657L24.1384 20.6604L21.4305 19.5386C20.9035 19.3034 20.456 18.9204 20.1423 18.4361C19.7811 17.8568 19.5982 17.1842 19.6162 16.5018V0.691406H22.7187Z" fill="white"/>
<path d="M59.9413 8.18846C60.5089 8.46218 61.0169 8.84504 61.4365 9.31516C61.856 9.78527 62.1788 10.3334 62.3864 10.9283C62.5941 11.5232 62.6825 12.1532 62.6466 12.7823C62.6107 13.4114 62.4512 14.0272 62.1773 14.5946L65.1986 16.0453C66.0164 14.3397 66.2158 12.4029 65.7628 10.5665C65.3098 8.73 64.2324 7.10815 62.7152 5.97859C61.198 4.84904 59.3353 4.28203 57.4461 4.37466C55.5568 4.46728 53.7586 5.21378 52.3591 6.48634L54.6183 8.96602C55.326 8.31876 56.2115 7.89867 57.1604 7.76005C58.1094 7.62143 59.0781 7.77067 59.9413 8.18846V8.18846Z" fill="#C7D540"/>
<path d="M55.7824 16.8422C54.6356 16.2899 53.7548 15.3052 53.3334 14.1041C52.912 12.903 52.9844 11.5838 53.5348 10.4361L50.5135 8.98152C49.7038 10.6849 49.5095 12.6162 49.9638 14.4467C50.4181 16.2772 51.4928 17.8936 53.0049 19.0208C54.517 20.1479 56.3731 20.7161 58.2571 20.6285C60.1411 20.5409 61.9364 19.803 63.3375 18.5405L61.0783 16.0647C60.3725 16.7054 59.4919 17.1216 58.5488 17.26C57.6056 17.3985 56.6426 17.2531 55.7824 16.8422V16.8422ZM16.5291 17.0705V12.5134C16.5291 10.9067 16.0526 9.33605 15.1599 8.0001C14.2673 6.66415 12.9985 5.62291 11.5141 5.00804C10.0297 4.39317 8.39626 4.23229 6.8204 4.54575C5.24455 4.85921 3.79703 5.63292 2.6609 6.76905C1.52477 7.90518 0.751052 9.3527 0.437594 10.9286C0.124136 12.5044 0.285014 14.1378 0.899884 15.6223C1.51475 17.1067 2.556 18.3755 3.89195 19.2681C5.22789 20.1608 6.79854 20.6372 8.40528 20.6372C9.66473 20.6374 10.907 20.3447 12.0339 19.7823L10.7264 16.7262C9.99427 17.131 9.16919 17.3376 8.33273 17.3257C7.49627 17.3137 6.67743 17.0836 5.95722 16.658C5.23701 16.2325 4.64039 15.6262 4.22639 14.8993C3.81239 14.1724 3.59536 13.35 3.59677 12.5134C3.5924 11.7275 3.78244 10.9528 4.14996 10.2581C4.47345 9.65191 4.92281 9.12187 5.46791 8.70354C6.01301 8.2852 6.64124 7.98825 7.3105 7.83259C7.66545 7.74852 8.02891 7.70568 8.39367 7.70493C9.67035 7.7039 10.8952 8.20981 11.799 9.11147C12.7029 10.0131 13.2117 11.2368 13.2138 12.5134V17.0318C13.1946 17.7138 13.3762 18.3864 13.736 18.966C14.0605 19.462 14.5231 19.852 15.0668 20.0879L16.5909 20.6914L17.883 17.5966L16.5291 17.0705Z" fill="white"/>
</svg>
